<?xml version="1.0" encoding="utf-8"?>
<!-- Generator: Adobe Illustrator 21.1.0, SVG Export Plug-In . SVG Version: 6.00 Build 0)  -->
<svg version="1.1" id="Layer_1" xmlns="http://www.w3.org/2000/svg" xmlns:xlink="http://www.w3.org/1999/xlink" x="0px" y="0px"
	 viewBox="0 0 1124 308" style="enable-background:new 0 0 1124 308;" xml:space="preserve">
<style type="text/css">
	.st0{fill:url(#path0_fill_1_);}
	.st1{fill:url(#path1_fill_1_);}
</style>
<title>Group 4.1</title>
<desc>Created using Figma</desc>
<g id="Canvas" transform="matrix(4 0 0 4 -65772 2836)">
	<g id="Group_4.1">
		<g id="Group_3">
			<g id="Group_4.3">
				<g id="bairon">
					<g transform="translate(16437 -723)">
						
							<linearGradient id="path0_fill_1_" gradientUnits="userSpaceOnUse" x1="16509.1289" y1="-565.4511" x2="16510.1289" y2="-565.4511" gradientTransform="matrix(-2.292320e-05 514 1361.4041 7.653160e-05 786391.625 -8486389)">
							<stop  offset="0" style="stop-color:#B777E0"/>
							<stop  offset="0.7514" style="stop-color:#805FCA"/>
						</linearGradient>
						<path id="path0_fill" class="st0" d="M16476.1-659.6c0-9.2-3.4-13.8-10.2-13.8c-1.5,0-2.9,0.2-4.4,0.6
							c-1.4,0.4-2.6,0.9-3.5,1.4v26c0.7,0.1,1.6,0.3,2.7,0.4c1.1,0.1,2.3,0.1,3.6,0.1c3.9,0,6.8-1.3,8.8-4
							S16476.1-655.2,16476.1-659.6z M16490.7-659.2c0,4-0.6,7.7-1.8,10.9c-1.2,3.3-2.8,6-5.1,8.4c-2.2,2.3-5,4.1-8.3,5.4
							c-3.3,1.2-7,1.8-11.1,1.8c-1.7,0-3.6-0.1-5.5-0.3c-1.9-0.1-3.7-0.3-5.6-0.6c-1.8-0.3-3.5-0.5-5.2-0.9
							c-1.7-0.4-3.1-0.8-4.4-1.2v-70.6l14.3-2.3v25.2c1.6-0.7,3.3-1.2,5-1.6c1.7-0.4,3.6-0.6,5.6-0.6c3.6,0,6.8,0.6,9.5,1.9
							c2.8,1.2,5.1,3,6.9,5.3s3.3,5.1,4.2,8.4C16490.2-666.8,16490.7-663.2,16490.7-659.2z M16521-644c1.4,0,2.8,0,4-0.1
							c1.3-0.1,2.3-0.2,3.1-0.3v-10.8c-0.6-0.1-1.4-0.3-2.6-0.4c-1.2-0.1-2.2-0.2-3.2-0.2c-1.3,0-2.6,0.1-3.8,0.3
							c-1.2,0.1-2.2,0.4-3.1,0.9c-0.9,0.4-1.6,1.1-2.1,1.8s-0.8,1.7-0.8,2.9c0,2.2,0.7,3.8,2.2,4.7
							C16516.2-644.4,16518.3-644,16521-644z M16519.8-685.8c4.2,0,7.7,0.5,10.6,1.4c2.8,1,5.1,2.3,6.7,4.1c1.7,1.8,2.9,4,3.6,6.5
							c0.7,2.6,1.1,5.4,1.1,8.5v29.8c-2,0.4-4.9,1-8.5,1.5c-3.6,0.6-8.1,1-13.2,1c-3.3,0-6.2-0.3-8.9-0.9c-2.6-0.6-4.9-1.5-6.8-2.8
							c-1.9-1.3-3.4-3.1-4.4-5.2c-1-2.1-1.5-4.7-1.5-7.8c0-2.9,0.6-5.4,1.7-7.5c1.2-2,2.8-3.7,4.8-4.9c2-1.2,4.3-2.1,6.8-2.6
							c2.6-0.6,5.2-0.9,8-0.9c1.9,0,3.5,0.1,4.9,0.3c1.5,0.1,2.7,0.3,3.6,0.6v-1.3c0-2.4-0.7-4.4-2.2-5.9c-1.5-1.5-4-2.2-7.7-2.2
							c-2.4,0-4.8,0.2-7.2,0.6c-2.4,0.3-4.4,0.8-6.1,1.4l-1.8-11.5c0.8-0.3,1.9-0.5,3.1-0.8c1.3-0.3,2.7-0.6,4.1-0.8
							c1.5-0.3,3-0.4,4.6-0.6C16516.5-685.7,16518.1-685.8,16519.8-685.8z M16569-634h-14.3v-50.5h14.3V-634z M16570.4-699.1
							c0,2.6-0.9,4.7-2.6,6.2c-1.7,1.5-3.6,2.2-6,2.2s-4.3-0.7-6-2.2c-1.7-1.5-2.5-3.6-2.5-6.2c0-2.6,0.8-4.7,2.5-6.1
							c1.7-1.5,3.7-2.3,6-2.3s4.3,0.8,6,2.3C16569.5-703.8,16570.4-701.7,16570.4-699.1z M16612.9-671.8c-1.3-0.3-2.8-0.6-4.5-1
							c-1.7-0.4-3.6-0.6-5.6-0.6c-0.9,0-2,0.1-3.3,0.3c-1.2,0.1-2.1,0.3-2.8,0.5v38.6h-14.3v-47.8c2.6-0.9,5.6-1.7,9-2.5
							c3.5-0.8,7.4-1.2,11.7-1.2c0.8,0,1.7,0.1,2.8,0.2c1.1,0.1,2.2,0.2,3.3,0.4c1.1,0.1,2.2,0.3,3.3,0.6c1.1,0.2,2,0.4,2.8,0.8
							L16612.9-671.8z M16669.3-659.3c0,4-0.6,7.6-1.7,10.9c-1.2,3.3-2.8,6.1-5,8.4c-2.2,2.3-4.8,4.1-7.9,5.4
							c-3,1.3-6.4,1.9-10.2,1.9c-3.7,0-7.1-0.6-10.2-1.9c-3-1.3-5.6-3.1-7.8-5.4c-2.2-2.4-3.9-5.2-5.1-8.4c-1.2-3.3-1.8-7-1.8-10.9
							s0.6-7.6,1.8-10.8c1.3-3.3,3-6,5.2-8.4c2.2-2.3,4.9-4.1,7.9-5.4c3.1-1.3,6.4-1.9,10-1.9c3.6,0,7,0.6,10,1.9
							c3.1,1.3,5.7,3.1,7.9,5.4c2.2,2.3,3.9,5.1,5.1,8.4C16668.7-666.9,16669.3-663.3,16669.3-659.3z M16654.7-659.3
							c0-4.4-0.9-7.9-2.7-10.4c-1.7-2.6-4.2-3.8-7.5-3.8c-3.3,0-5.8,1.3-7.6,3.8c-1.8,2.5-2.7,6-2.7,10.4s0.9,7.9,2.7,10.6
							c1.8,2.6,4.3,3.8,7.6,3.8c3.3,0,5.8-1.3,7.5-3.8C16653.8-651.4,16654.7-654.9,16654.7-659.3z M16680.3-682.8
							c2.4-0.7,5.6-1.3,9.4-1.9c3.8-0.6,7.9-1,12.1-1c4.3,0,7.8,0.6,10.7,1.7c2.9,1.1,5.2,2.7,6.8,4.7s2.8,4.5,3.6,7.3
							c0.7,2.8,1.1,6,1.1,9.4v28.5h-14.3v-26.8c0-4.6-0.6-7.9-1.8-9.8c-1.2-1.9-3.5-2.9-6.8-2.9c-1,0-2.1,0.1-3.3,0.2
							c-1.2,0.1-2.2,0.2-3.1,0.3v39h-14.3V-682.8z"/>
					</g>
				</g>
				<g id="ai">
					<g transform="translate(16495 -723)">
						
							<linearGradient id="path1_fill_1_" gradientUnits="userSpaceOnUse" x1="16509.1504" y1="-565.6096" x2="16510.1504" y2="-565.6096" gradientTransform="matrix(1.983928e-14 444 324 -2.718716e-14 199791.9062 -7330786)">
							<stop  offset="0" style="stop-color:#6AB8D9"/>
							<stop  offset="1" style="stop-color:#47849E"/>
						</linearGradient>
						<path id="path1_fill" class="st1" d="M16521-644c1.4,0,2.8,0,4-0.1c1.3-0.1,2.3-0.2,3.1-0.3v-10.8c-0.6-0.1-1.4-0.3-2.6-0.4
							c-1.2-0.1-2.2-0.2-3.2-0.2c-1.3,0-2.6,0.1-3.8,0.3c-1.2,0.1-2.2,0.4-3.1,0.9c-0.9,0.4-1.6,1.1-2.1,1.8s-0.8,1.7-0.8,2.9
							c0,2.2,0.7,3.8,2.2,4.7C16516.3-644.4,16518.4-644,16521-644z M16519.9-685.8c4.2,0,7.7,0.5,10.6,1.4c2.8,1,5.1,2.3,6.7,4.1
							c1.7,1.8,2.9,4,3.6,6.5c0.7,2.6,1.1,5.4,1.1,8.5v29.8c-2,0.4-4.9,1-8.5,1.5c-3.6,0.6-8.1,1-13.2,1c-3.3,0-6.2-0.3-8.9-0.9
							c-2.6-0.6-4.9-1.5-6.8-2.8c-1.9-1.3-3.4-3.1-4.4-5.2c-1-2.1-1.5-4.7-1.5-7.8c0-2.9,0.6-5.4,1.7-7.5c1.2-2,2.8-3.7,4.8-4.9
							c2-1.2,4.3-2.1,6.8-2.6c2.6-0.6,5.2-0.9,8-0.9c1.9,0,3.5,0.1,4.9,0.3c1.5,0.1,2.7,0.3,3.6,0.6v-1.3c0-2.4-0.7-4.4-2.2-5.9
							c-1.5-1.5-4-2.2-7.7-2.2c-2.4,0-4.8,0.2-7.2,0.6c-2.4,0.3-4.4,0.8-6.1,1.4l-1.8-11.5c0.8-0.3,1.9-0.5,3.1-0.8
							c1.3-0.3,2.7-0.6,4.1-0.8c1.5-0.3,3-0.4,4.6-0.6C16516.5-685.7,16518.2-685.8,16519.9-685.8z M16569.1-634h-14.3v-50.5h14.3
							V-634z M16570.4-699.1c0,2.6-0.9,4.7-2.6,6.2c-1.7,1.5-3.6,2.2-6,2.2s-4.3-0.7-6-2.2c-1.7-1.5-2.5-3.6-2.5-6.2
							c0-2.6,0.8-4.7,2.5-6.1c1.7-1.5,3.7-2.3,6-2.3s4.3,0.8,6,2.3C16569.6-703.8,16570.4-701.7,16570.4-699.1z"/>
					</g>
				</g>
			</g>
		</g>
	</g>
</g>
</svg>
